 <svg
      id="Layer_4"
      data-name="Layer 4"
      xmlns="http://www.w3.org/2000/svg"
      xmlns:xlink="http://www.w3.org/1999/xlink"
    >
      <defs>
        <style>
          .cls-2 {
            fill: #F3F7F8;
          }

          .cls-3 {
            fill: #F3F7F8;
          }
        </style>
      </defs>

      <path
        class="cls-2"
        d="M217,293c4.45,4,5.22,10.24,3,14.36a9.17,9.17,0,0,1-1.51,4.9c-3.83,5.36-7,7.83-8.37,13.24,2,5,5.33,10,3.86,18.3a17.32,17.32,0,0,1-1,3.53c1.75,4,3.59,8.58,3.38,13.23-.3,6.88-2.93,8.45-4.57,12.81.31.33.59.63.81.9,3.71,4.55,3.74,9.91,2.13,14.72a6,6,0,0,0,1.6,1.1c0,2.67-1.3,12.57-1,16.44s4.37,15.52,4.63,18.22-3.21,9.28-4.5,15.2,1.83,17.09,1.83,22-.21,10.69-.86,11.92c-4.89,9.26-1.09,12,3.44,11.8,7-.27,24,.59,24.71.14a1.91,1.91,0,0,0,1.82-2.34c-.1-.8-1.68-.59-3.29-1.11-3.89-1.26-10.13-2.78-11.78-4.11s-6.31-4.24-6.32-7.87c.74-4.46,4.46-23.9,6.39-32.6.26-1.16,2.19-3,2.57-5.15,1.86-10.59,5.52-21.78,6.33-32.07.49-6.22-1.56-11.82-2.41-16.08-.08-3,1.35-3.91,1.29-6.57,0-2.25-1.57-4.28-1.69-5.76-.28-3.33,1.21-7,1.85-10.35,1-4.59.45-8.7.73-11.49,3.61-7.41,5.65-20.25,3.79-27.56s-11.65-14.34-12.8-15.88c-1.44-1.92-1.48-5.71-.34-7.3.64-.9,5.84-2.11,6.74-3.91s0-6.05-1.29-10.43-5.78-13.78-8-14.94-6.82-.64-10.28.77-8.22,6.13-8.6,9.48.09,8.06,1.64,10.64l.24.39A7.69,7.69,0,0,1,217,293Z"
        transform="translate(-70.01 -227.1)"
      ></path>
      <path
        class="cls-3"
        d="M171.08,369.48c.42,15.11,14.62,18.11,14.62,18.11-3.66,14.28,1.53,28.66,6.13,42.47.91,5.16,1.88,6,4.74,8.51,8.06,23,5.79,36.54,5.63,36.95-1.41,3.73-4.55,5.44-5.83,6.47s-8.6.6-9.37,1.63.52,2,1.05,2.27,15.79-.72,19.76-.33c8,.61,4.68-5.63,3.23-9.88-1.79-13.92,4.05-24.21,2.25-32.49-1.47-6.74-7.29-9.25-7.67-13.63s1.68-13.35,2.07-17.22.7-13.31.7-13.31a26.5,26.5,0,0,0,6.25-10c1.61-4.81,1.57-10.18-2.13-14.72-.22-.27-.5-.57-.81-.9-1.79-1.87-4.68-4.63-4.65-8.37.09-9.65,3.79-12.53,5.84-17.66a18.39,18.39,0,0,0,1-3.53c1.47-8.34-1.85-13.27-3.86-18.3a15.48,15.48,0,0,1-1.32-7.51c1.2-4.36,7.71-5.71,10.6-9.68a8.38,8.38,0,0,0,.59-1c2.26-4.12,1.49-10.33-3-14.36a7.65,7.65,0,0,0-5.88-1.44,14.58,14.58,0,0,0-4,1c-5.53,2.28-9.13,8.51-10.12,10.14-1.93,4.3-3,6.64-2.83,9.43s5.2,5.55,6.62,7.61a5.71,5.71,0,0,1,1.08,2.94c1,12.51-13.74,11.42-13.75,18.07a8.14,8.14,0,0,0,2.15,4.93S170.66,354.37,171.08,369.48Z"
        transform="translate(-70.01 -227.1)"
      ></path>
      <path
        class="cls-2"
        d="M335.74,428.87A128.37,128.37,0,0,0,341,391.14c-.42-35.27-15.09-75.92-56.41-101a1.09,1.09,0,0,0-1.38,1.55c15.62,15.86,26.15,34.09,31,51.56,22.85,81.77-26.11,146-88.37,156.26-17.9,2.94-37.2,2.43-55.86-4.33-20.13-7.28-41.46-20.39-57.24-39-14.1-16.58-25.37-39.55-30-64.19-8.33-44,1.22-92.36,34.05-128.09.61-.85,0-1.86-1.12-1-32,33-46.75,80.1-45.58,125.48,1.41,54.56,35.6,98.7,65.72,116.93C164.72,522.88,195,528.7,224,524.89a150.49,150.49,0,0,0,30.39-7.52C294,502.78,322.91,471.24,335.74,428.87Z"
        transform="translate(-70.01 -227.1)"
      ></path>
      <path
        class="cls-3"
        d="M273,235.27a138.18,138.18,0,0,0-127.67,18c-7.89,5.71-14.79,12.52-21.37,19.6a122.5,122.5,0,0,0-30.8,59.65A137.34,137.34,0,0,0,91,349.16a151.27,151.27,0,0,0-.26,17.46,149.35,149.35,0,0,0,1.79,17.63,134.13,134.13,0,0,0,3.93,17.17,152,152,0,0,0,5.89,16.21A89.37,89.37,0,0,0,110.6,432c7.63,11.38,9.81,13.89,19.44,22.94,1.29,1.19,2.57.35,1.39-1.16-13.45-18.23-18.71-45.4-21.08-68.63-2.45-24.05,2-48.39,13-68.7q2.3-4.21,4.89-8.26c13.56-21,35.25-36.72,59.79-43.92a142.13,142.13,0,0,1,19.17-4.56,120.7,120.7,0,0,1,92.27,24.18,139,139,0,0,1,39.36,50.49c10.07,21.83,13,46.82,10.78,70.79A149.76,149.76,0,0,1,329.27,468c-8.44,14.24-18.4,27.54-32,38.27-1.84,1.34-.61,2.73,1,1.89,34.92-24,57.46-62.76,65.26-103.23,6.08-31.58,3-64.27-8.83-91.35C337.27,273.48,306.85,247.49,273,235.27Z"
        transform="translate(-70.01 -227.1)"
      ></path>
    </svg>